<svg width="16" height="16" viewBox="0 0 16 16" fill="none" xmlns="http://www.w3.org/2000/svg">
<g id="search" clip-path="url(#clip0_1241_4685)">
<path id="Vector" d="M11.7424 10.3431C12.7107 9.02181 13.1444 7.38361 12.9567 5.75627C12.769 4.12893 11.9738 2.63246 10.7302 1.56625C9.48653 0.500045 7.88616 -0.0572725 6.24925 0.00580065C4.61233 0.0688738 3.05959 0.747686 1.90168 1.90643C0.743761 3.06518 0.0660601 4.6184 0.00415825 6.25536C-0.0577436 7.89232 0.500719 9.49228 1.56782 10.7352C2.63492 11.9781 4.13195 12.7722 5.75943 12.9587C7.3869 13.1452 9.02479 12.7104 10.3454 11.7411H10.3444C10.3744 11.7811 10.4064 11.8191 10.4424 11.8561L14.2924 15.7061C14.4799 15.8938 14.7343 15.9992 14.9996 15.9993C15.2648 15.9994 15.5193 15.8941 15.7069 15.7066C15.8946 15.5191 16 15.2647 16.0001 14.9995C16.0002 14.7342 15.8949 14.4798 15.7074 14.2921L11.8574 10.4421C11.8217 10.4059 11.7832 10.3725 11.7424 10.3421V10.3431ZM12.0004 6.49913C12.0004 7.2214 11.8581 7.93659 11.5817 8.60388C11.3053 9.27117 10.9002 9.87749 10.3895 10.3882C9.87877 10.8989 9.27246 11.3041 8.60517 11.5805C7.93788 11.8569 7.22268 11.9991 6.50041 11.9991C5.77814 11.9991 5.06294 11.8569 4.39565 11.5805C3.72836 11.3041 3.12204 10.8989 2.61132 10.3882C2.1006 9.87749 1.69547 9.27117 1.41907 8.60388C1.14267 7.93659 1.00041 7.2214 1.00041 6.49913C1.00041 5.04043 1.57987 3.64149 2.61132 2.61004C3.64277 1.57859 5.04172 0.999124 6.50041 0.999124C7.9591 0.999124 9.35805 1.57859 10.3895 2.61004C11.4209 3.64149 12.0004 5.04043 12.0004 6.49913Z" fill="#A9A9A9"/>
</g>
<defs>
<clipPath id="clip0_1241_4685">
<rect width="16" height="16" fill="white"/>
</clipPath>
</defs>
</svg>
