<svg width="20" height="20" viewBox="0 0 20 20" fill="none" xmlns="http://www.w3.org/2000/svg">
<g id="x-circle" clip-path="url(#clip0_1088_29420)">
<path id="Vector" d="M10 18.75C7.67936 18.75 5.45376 17.8281 3.81282 16.1872C2.17187 14.5462 1.25 12.3206 1.25 10C1.25 7.67936 2.17187 5.45376 3.81282 3.81282C5.45376 2.17187 7.67936 1.25 10 1.25C12.3206 1.25 14.5462 2.17187 16.1872 3.81282C17.8281 5.45376 18.75 7.67936 18.75 10C18.75 12.3206 17.8281 14.5462 16.1872 16.1872C14.5462 17.8281 12.3206 18.75 10 18.75ZM10 20C12.6522 20 15.1957 18.9464 17.0711 17.0711C18.9464 15.1957 20 12.6522 20 10C20 7.34784 18.9464 4.8043 17.0711 2.92893C15.1957 1.05357 12.6522 0 10 0C7.34784 0 4.8043 1.05357 2.92893 2.92893C1.05357 4.8043 0 7.34784 0 10C0 12.6522 1.05357 15.1957 2.92893 17.0711C4.8043 18.9464 7.34784 20 10 20Z" fill="#00A29A"/>
<path id="Vector_2" d="M5.8076 5.80764C5.86566 5.74944 5.93463 5.70326 6.01056 5.67175C6.08649 5.64024 6.16789 5.62402 6.2501 5.62402C6.33231 5.62402 6.41371 5.64024 6.48964 5.67175C6.56557 5.70326 6.63454 5.74944 6.6926 5.80764L10.0001 9.11639L13.3076 5.80764C13.3657 5.74953 13.4347 5.70343 13.5106 5.67199C13.5865 5.64054 13.6679 5.62435 13.7501 5.62435C13.8323 5.62435 13.9137 5.64054 13.9896 5.67199C14.0655 5.70343 14.1345 5.74953 14.1926 5.80764C14.2507 5.86575 14.2968 5.93474 14.3283 6.01066C14.3597 6.08659 14.3759 6.16796 14.3759 6.25014C14.3759 6.33232 14.3597 6.4137 14.3283 6.48962C14.2968 6.56554 14.2507 6.63453 14.1926 6.69264L10.8838 10.0001L14.1926 13.3076C14.2507 13.3657 14.2968 13.4347 14.3283 13.5107C14.3597 13.5866 14.3759 13.668 14.3759 13.7501C14.3759 13.8323 14.3597 13.9137 14.3283 13.9896C14.2968 14.0655 14.2507 14.1345 14.1926 14.1926C14.1345 14.2507 14.0655 14.2968 13.9896 14.3283C13.9137 14.3597 13.8323 14.3759 13.7501 14.3759C13.6679 14.3759 13.5865 14.3597 13.5106 14.3283C13.4347 14.2968 13.3657 14.2507 13.3076 14.1926L10.0001 10.8839L6.6926 14.1926C6.63449 14.2507 6.5655 14.2968 6.48958 14.3283C6.41365 14.3597 6.33228 14.3759 6.2501 14.3759C6.16792 14.3759 6.08654 14.3597 6.01062 14.3283C5.9347 14.2968 5.86571 14.2507 5.8076 14.1926C5.74949 14.1345 5.70339 14.0655 5.67195 13.9896C5.6405 13.9137 5.62431 13.8323 5.62431 13.7501C5.62431 13.668 5.6405 13.5866 5.67195 13.5107C5.70339 13.4347 5.74949 13.3657 5.8076 13.3076L9.11635 10.0001L5.8076 6.69264C5.7494 6.63458 5.70322 6.56561 5.67171 6.48968C5.6402 6.41375 5.62398 6.33235 5.62398 6.25014C5.62398 6.16793 5.6402 6.08653 5.67171 6.0106C5.70322 5.93467 5.7494 5.8657 5.8076 5.80764Z" fill="#00A29A"/>
</g>
<defs>
<clipPath id="clip0_1088_29420">
<rect width="20" height="20" fill="white"/>
</clipPath>
</defs>
</svg>
